<?xml version="1.0" standalone="no"?>
<!DOCTYPE svg PUBLIC "-//W3C//DTD SVG 20010904//EN"
 "http://www.w3.org/TR/2001/REC-SVG-20010904/DTD/svg10.dtd">
<svg version="1.0" xmlns="http://www.w3.org/2000/svg"
 width="1890.000000pt" height="1417.000000pt" viewBox="0 0 1890.000000 1417.000000"
 preserveAspectRatio="xMidYMid meet">

<g transform="translate(0.000000,1417.000000) scale(0.100000,-0.100000)"
fill="#000000" stroke="none">
<path d="M5725 8108 c-3 -7 -88 -290 -190 -628 -102 -338 -188 -623 -191 -632
-5 -16 3 -18 69 -18 l74 0 57 194 c31 106 56 199 56 205 0 8 64 11 218 11
l218 0 64 -205 64 -205 77 0 77 0 -34 108 c-18 59 -112 348 -207 642 l-172
535 -88 3 c-64 2 -89 -1 -92 -10z m115 -217 c12 -47 50 -173 84 -280 35 -108
66 -206 70 -218 l7 -23 -180 0 c-100 0 -181 3 -181 6 0 3 27 94 59 202 33 108
69 238 81 287 26 109 29 119 34 114 3 -2 14 -42 26 -88z"/>
<path d="M9340 7693 c0 -236 3 -526 7 -645 l6 -218 69 0 68 0 0 203 c0 111 -3
401 -7 645 l-6 442 -69 0 -68 0 0 -427z"/>
<path d="M6724 7770 c-141 -29 -260 -157 -299 -322 -19 -81 -19 -228 0 -301
47 -180 167 -295 319 -305 39 -2 89 1 112 7 54 15 124 63 153 105 36 54 45 36
38 -73 -10 -164 -50 -247 -140 -293 -82 -41 -236 -34 -338 15 l-47 23 -16 -60
c-19 -68 -22 -64 64 -97 117 -44 293 -42 395 5 103 47 164 124 202 253 15 51
17 119 17 545 l1 488 -62 0 -63 0 0 -64 c0 -36 -4 -67 -9 -70 -5 -3 -21 12
-36 33 -59 86 -183 133 -291 111z m171 -139 c56 -25 102 -76 125 -138 25 -68
29 -290 5 -369 -30 -103 -111 -163 -218 -164 -133 0 -223 98 -247 271 -25 175
42 349 154 400 52 24 130 24 181 0z"/>
<path d="M7765 7771 c-44 -11 -87 -36 -116 -68 -29 -31 -69 -100 -69 -120 0
-7 -4 -13 -10 -13 -5 0 -10 26 -10 58 0 31 -3 74 -6 95 l-7 37 -60 0 -60 0 6
-167 c4 -91 7 -300 7 -465 l0 -298 73 0 74 0 -1 293 c-1 254 1 298 17 342 35
101 106 157 199 157 l50 -1 -7 72 c-4 40 -9 75 -12 80 -5 8 -27 8 -68 -2z"/>
<path d="M8278 7770 c-122 -21 -231 -106 -286 -221 -73 -155 -71 -361 4 -517
113 -234 429 -288 622 -108 95 89 136 202 136 371 0 115 -15 189 -56 269 -26
52 -102 132 -153 161 -70 41 -183 60 -267 45z m127 -121 c218 -55 277 -492 89
-658 -123 -108 -293 -58 -367 107 -76 169 -43 402 70 502 62 55 126 70 208 49z"/>
<path d="M10119 7769 c-65 -10 -120 -41 -168 -95 -22 -26 -41 -51 -41 -55 0
-5 -4 -9 -10 -9 -5 0 -10 20 -10 44 0 24 -3 58 -6 75 -6 31 -7 31 -67 31 l-60
0 6 -157 c4 -87 7 -296 7 -465 l0 -308 69 0 70 0 3 323 3 322 30 54 c87 157
256 157 329 1 20 -42 21 -64 24 -372 l3 -328 73 0 73 0 -1 328 c-1 318 0 328
21 368 78 146 254 160 322 26 35 -69 41 -135 41 -432 l0 -290 75 0 75 0 -5
268 c-7 357 -11 406 -36 479 -26 77 -91 154 -151 178 -65 26 -160 21 -224 -10
-52 -25 -115 -87 -137 -132 -13 -29 -23 -29 -31 0 -8 32 -81 114 -120 134 -41
22 -101 30 -157 22z"/>
<path d="M11608 7770 c-70 -12 -146 -58 -191 -115 -21 -27 -43 -51 -48 -53 -5
-2 -9 33 -9 77 l0 81 -64 0 -63 0 4 -532 c2 -293 6 -588 9 -655 l6 -123 69 0
69 0 0 256 0 256 45 -50 c58 -64 127 -95 215 -95 163 -1 289 96 351 269 30 83
37 273 15 368 -52 218 -219 349 -408 316z m119 -145 c85 -43 134 -125 154
-259 9 -57 9 -95 0 -152 -26 -177 -115 -274 -251 -274 -70 0 -124 25 -173 80
-59 64 -69 98 -75 241 -4 109 -2 136 16 195 26 85 69 139 136 170 68 32 128
31 193 -1z"/>
<path d="M12512 7769 c-197 -25 -332 -221 -332 -480 0 -158 36 -264 120 -353
89 -94 210 -131 373 -115 82 8 182 33 192 48 3 5 0 32 -7 60 -9 41 -15 50 -27
45 -53 -21 -127 -34 -206 -34 -75 0 -98 4 -140 25 -27 13 -57 30 -65 37 -53
45 -100 148 -100 220 l0 38 295 0 294 0 7 37 c4 20 0 77 -8 128 -41 247 -183
371 -396 344z m131 -123 c67 -27 115 -110 131 -223 l6 -43 -230 0 -230 0 0 25
c0 36 37 127 70 174 16 22 47 49 67 60 45 24 138 28 186 7z"/>
<path d="M13010 7756 c0 -3 63 -103 140 -223 77 -120 140 -222 140 -228 0 -9
-71 -126 -251 -412 l-39 -63 79 0 79 0 80 138 c44 75 90 158 103 185 26 54 40
59 58 20 7 -16 55 -99 108 -185 l94 -158 80 0 c43 0 79 2 79 5 0 3 -65 108
-145 235 -80 126 -145 234 -145 240 0 6 63 110 139 231 l140 219 -79 0 -78 0
-75 -127 c-41 -71 -87 -152 -102 -181 -14 -30 -28 -52 -31 -49 -2 2 -46 73
-97 158 -51 85 -100 164 -108 177 -12 20 -22 22 -91 22 -43 0 -78 -2 -78 -4z"/>
</g>
</svg>
